<?xml version="1.0" encoding="utf-8"?>
<!-- Generator: Adobe Illustrator 14.0.0, SVG Export Plug-In . SVG Version: 6.00 Build 43363)  -->
<!DOCTYPE svg PUBLIC "-//W3C//DTD SVG 1.0//EN" "http://www.w3.org/TR/2001/REC-SVG-20010904/DTD/svg10.dtd">
<svg version="1.0"
	 id="Layer_1" image-rendering="optimizeQuality" shape-rendering="geometricPrecision" text-rendering="geometricPrecision"
	 xmlns="http://www.w3.org/2000/svg" xmlns:xlink="http://www.w3.org/1999/xlink" x="0px" y="0px" width="1024px" height="1024px"
	 viewBox="0 0 1024 1024" enable-background="new 0 0 1024 1024" xml:space="preserve">
<title>compasses icon</title>
<desc>compasses icon from the IconExperience.com O-Collection. Copyright by INCORS GmbH (www.incors.com).</desc>
<path id="curve2" fill="#666666" d="M192,640h235.5H480l1.7-64h60.6l1.7,64h52.5H832v64H544v64h-64v-64H192V640z"/>
<path id="curve1" fill="#666666" d="M211.3,892.7c-24.9-25-41.6-56.5-24.2-87.2l210.8-373.3c22.5,22.899,51.899,39,84.8,45.1
	L192,992L211.3,892.7z M812.7,892.7c24.899-25,41.6-56.5,24.2-87.2L626.1,432.1c-22.5,23-51.899,39.101-84.8,45.2L832,992
	L812.7,892.7z"/>
<path id="curve0" fill="#00329B" d="M480,64h64v132c55.2,14.2,96,64.4,96,124c0,70.7-57.3,128-128,128s-128-57.3-128-128
	c0-59.6,40.8-109.8,96-124V64z M512,256c-35.3,0-64,28.7-64,64s28.7,64,64,64s64-28.7,64-64S547.3,256,512,256z"/>
</svg>
