<?xml version="1.0" encoding="iso-8859-1"?>
<!-- Generator: Adobe Illustrator 19.1.1, SVG Export Plug-In . SVG Version: 6.00 Build 0)  -->
<svg version="1.1" id="Layer_1" xmlns="http://www.w3.org/2000/svg" xmlns:xlink="http://www.w3.org/1999/xlink" x="0px" y="0px"
	 viewBox="0 0 48 48" style="enable-background:new 0 0 48 48;" xml:space="preserve">
<path style="fill:#CFD8DC;" d="M39,6H9C7.343,6,6,7.344,6,9v33l8.556-8H39c1.656,0,3-1.344,3-3V9C42,7.344,40.656,6,39,6z"/>
<path style="fill:#2196F3;" d="M20,6H9C7.343,6,6,7.344,6,9v33l8.556-8H27L20,6z"/>
<path style="fill:#546E7A;" d="M28.064,24.223c0.061-0.031,4.994-3.219,7.936-9.115L37.79,16c-3.082,6.25-7.457,9.292-8.509,10
	L28.064,24.223z"/>
<path style="fill:#546E7A;" d="M37,26c0,0-5-2.583-7.769-6.998L31,18c2.333,3.833,6.981,6.26,6.981,6.26L37,26z"/>
<rect x="27" y="15" style="fill:#546E7A;" width="12" height="2"/>
<rect x="32" y="13" style="fill:#546E7A;" width="2" height="4"/>
<path style="display:none;fill:#2196F3;" d="M30.621,34L20,6H9C7.343,6,6,7.344,6,9v33l8.556-8H30.621z"/>
<rect x="12" y="22" style="fill:#FFFFFF;" width="6" height="2"/>
<polygon style="fill:#FFFFFF;" points="12.109,26 15,17 17.906,26 20.016,26 16,14 14,14 10,26 "/>
</svg>
