<?xml version="1.0" encoding="utf-8"?>
<!-- Generator: Adobe Illustrator 21.0.2, SVG Export Plug-In . SVG Version: 6.00 Build 0)  -->
<svg xmlns="http://www.w3.org/2000/svg" xmlns:xlink="http://www.w3.org/1999/xlink" version="1.1" id="Layer_1" x="0px" y="0px" viewBox="0 0 48 48" style="enable-background:new 0 0 48 48;" xml:space="preserve">
<g id="surface1">
	<path style="fill:#FFB74D;" d="M28.8,26.2L25,20C24.4,12.4,20.1,5,9,5C7.9,5,7,5.1,6,5.2L6,44h10l0-3.6l2.6,0.5   c2.8,0.6,5.5-1.4,5.8-4.2L19,34l5.7-0.8L25,30l2.9-1.2C28.9,28.4,29.3,27.2,28.8,26.2z"/>
	<path style="fill:#FF9800;" d="M16,44l0-3.6L9,39l0,5H16z"/>
	<path style="fill:#784719;" d="M19,23.5c0,0.8,0.7,1.5,1.5,1.5s1.5-0.7,1.5-1.5S21.3,22,20.5,22S19,22.7,19,23.5"/>
	<path style="fill:#455A64;" d="M8.4,4C7.6,4,6.8,4.1,6,4.2v18.9C6.3,23.1,6.7,23,7,23c1.4,0,2.6,0.7,3.3,1.8l1.6-0.8l2.1-6   c0,0,7-3.8,7-10.3C18.1,5.2,12.7,4,8.4,4z"/>
	<polygon style="fill:#2196F3;" points="34.7,42.9 31.5,33.8 30.7,36 27,36 27,34 29.3,34 31.7,28.1 34.1,35.2 36.5,22.8 40,34.7    41.4,30.7 43.3,31.3 40,41.3 36.9,31.2  "/>
</g>
</svg>
