<?xml version="1.0" encoding="iso-8859-1"?>
<!-- Generator: Adobe Illustrator 19.1.1, SVG Export Plug-In . SVG Version: 6.00 Build 0)  -->
<svg version="1.1"  xmlns="http://www.w3.org/2000/svg" xmlns:xlink="http://www.w3.org/1999/xlink" x="0px" y="0px"
	 viewBox="0 0 48 48" style="enable-background:new 0 0 48 48;" xml:space="preserve">
<path style="fill:#FFBA57;" d="M30,26c4.751-3.583,9.834-4.75,13,1c0,9,1.167,17-7,17c-2-3-1-4-3-4s-2.308,1.754-8,2
	c-3.42,0.148-8-1-12-4c-2.794-2.096-8-7-9-9c-0.391-0.781,0.378-4.691,2.398-9.203c3.058-6.828,5.57-9.664,7.413-11.797
	C16.651,5.123,19,4,20,4s7.024,1.01,8,2c1,1,0.766,1.527,1,3c0.236,1.473-0.239,2.072-0.734,2.977
	c-0.172,0.313-0.719,0.936-1.198,0.521c-0.274,0.485-1.334,0.795-1.728,0.122c-0.377,0.623-1.438,0.346-1.677-0.101
	c-0.377,0.59-1.198-0.068-1.456-0.328c-0.187-0.189-0.425-0.469-0.58-0.764c-0.035-0.035-0.484-1.164-0.005-1.27
	c-1.01,0.223-1.42,0-2.13,0.72c-0.71,0.719-2.601,2.379-2.492,5.704c0.123,3.799-1,6.42-2,7.42c0,0,1,0,2,0
	C19.625,22.063,24,20,30,26z"/>
<path style="fill:#F9A825;" d="M43,27c-3.166-5.75-8.249-4.583-13-1c0,0,2.084,3.292,3.084,8.292C34.084,29.292,38,26,43,27z"/>
<path style="fill:#F9A825;" d="M25.626,22.792c0,0-0.008-0.011-0.014-0.019C21.917,21.083,18.998,22.525,17,24c-1,0-2,0-2,0
	s0,9,10.125,12.125c0,0-7.958-4.791-5.125-10.125C22,22,24.626,22.792,25.626,22.792z"/>
<path style="fill:#F9A825;" d="M34.875,29.625L33,29c0,0-0.658-0.947,0,3c0.75,4.5-1.875,7.75-8.25,7.875
	c0,0-6.945-0.226-16.046-6.091C10.628,35.414,11.688,37.016,13,38c4,3,8.58,4.148,12,4c5.692-0.246,6-2,8-2s1,1,3,4
	c2.006,0,3.479-0.422,4.516-1.375C38.757,35.934,32.517,35.051,34.875,29.625z"/>
<path style="fill:#F9A825;" d="M13,38c1.45,1.088,2.977,1.926,4.497,2.553C19.425,40.693,21.58,40.551,24,40
	c-7.25-1.25-10.425-6.084-13.021-8.531C5.264,26.081,8.25,23.031,11,16.5c2.169-5.152,2.933-8.354,4.898-10.387
	c-0.292,0.234-0.597,0.494-0.906,0.77c-0.039,0.035-0.075,0.063-0.115,0.098C14.531,7.293,14.176,7.631,13.811,8
	c-1.843,2.133-4.355,4.969-7.413,11.797C4.378,24.309,3.609,28.219,4,29C5,31,10.206,35.904,13,38z"/>
</svg>
