<?xml version="1.0" encoding="utf-8"?>
<!-- Generator: Adobe Illustrator 18.1.1, SVG Export Plug-In . SVG Version: 6.00 Build 0)  -->
<svg version="1.1"  xmlns="http://www.w3.org/2000/svg" xmlns:xlink="http://www.w3.org/1999/xlink" x="0px" y="0px"
	 viewBox="0 0 48 48" enable-background="new 0 0 48 48" xml:space="preserve">
<path fill="#A5D6A7" d="M31,44v-4.6l2.6,0.5c2.9,0.6,5.6-1.5,5.8-4.4L40,29l2.9-1.2c1-0.4,1.4-1.6,0.8-2.6L40,19
	c-0.6-7.6-4.9-15-16-15C12.6,4,7,12.4,7,21c0,3.7,1.3,6.9,3.3,9.6c1.8,2.5,2.7,5.5,2.7,8.5l0,4.8H31z"/>
<g>
	<g>
		<path fill="#388E3C" d="M25.6,26.2h-2.9l-0.3-14h3.5L25.6,26.2z"/>
	</g>
	<path fill="#388E3C" d="M22.3,30.4c0-0.3,0.1-1.8,1.9-1.8c1.8,0,1.9,1.5,1.9,1.8c0,1.2-0.9,1.8-1.9,1.8
		C22.7,32.2,22.3,31,22.3,30.4z"/>
</g>
</svg>
